# File created by Blade
# Date/Time:  Thu Sep 25 19:26:26 2014
# Frame Rate: 120.000 fps
#------------------------------------------------------
:FULLY-SPECIFIED
:DEGREES
954
root 1.064948 31.586330 -12.934323 109.036675 28.939070 8.875148
Spine 42.606178 -1.130146 -4.394871
Head 20.886557 -18.828544 -33.756844
LeftShoulder 11.293299 -50.815730 35.528379
LeftArm 34.358010 -16.227157 -39.772664
LeftForeArm 14.407167 -0.000000 36.347889
LeftHand -40.430415 -0.000000 75.858310
LeftHandThumb1 -26.253704 0.000000 33.147579
RightShoulder -10.834579 62.633863 -64.308550
RightArm 47.982766 0.365703 38.881648
RightForeArm -53.794186 -0.000000 42.988601
RightHand -13.966014 -0.000000 -21.723689
RightHandThumb1 -24.326973 -0.000000 -32.862282
LeftUpLeg -117.235830 2.180604 2.808234
LeftLeg -1.429872 -0.000000 0.000000
LeftFoot 9.439451 -4.611258 -27.091266
LeftToeBase 7.972822 -0.000000 -0.000000
RightUpLeg -110.098790 -20.105759 35.420762
RightLeg -0.215639 -0.000000 0.000000
RightFoot 1.660932 -19.402773 17.167944
RightToeBase 5.508590 -0.000000 -0.000000
955
root 1.068688 31.585857 -12.936284 109.048338 28.923039 8.898476
Spine 42.583063 -1.149914 -4.363084
Head 20.864897 -18.843352 -33.753132
LeftShoulder 11.274351 -50.803707 35.539707
LeftArm 34.385444 -16.176490 -39.780360
LeftForeArm 14.348426 -0.000000 36.278239
LeftHand -40.471688 0.000000 75.804976
LeftHandThumb1 -26.253704 0.000000 33.147579
RightShoulder -10.779073 62.640539 -64.275261
RightArm 47.989893 0.330952 38.851610
RightForeArm -53.805836 -0.000000 42.920536
RightHand -13.924327 -0.000000 -21.759047
RightHandThumb1 -24.326973 -0.000000 -32.862282
LeftUpLeg -117.257190 2.160026 2.827266
LeftLeg -1.389655 -0.000000 0.000000
LeftFoot 9.425344 -4.575861 -27.114007
LeftToeBase 8.030473 -0.000000 -0.000000
RightUpLeg -110.121427 -20.145651 35.386860
RightLeg -0.190291 -0.000000 0.000000
RightFoot 1.659638 -19.443449 17.244969
RightToeBase 5.497873 -0.000000 -0.000000
956
root 1.071965 31.585413 -12.938148 109.075365 28.909691 8.920985
Spine 42.516840 -1.163785 -4.322317
Head 21.062583 -18.864124 -33.904139
LeftShoulder 11.372047 -50.750608 35.430316
LeftArm 34.428234 -16.158312 -39.738045
LeftForeArm 14.340230 -0.000000 36.217498
LeftHand -40.531333 -0.000000 75.870348
LeftHandThumb1 -26.253704 0.000000 33.147579
RightShoulder -10.645921 62.659132 -64.185322
RightArm 47.955438 0.299510 38.857201
RightForeArm -53.783746 -0.000000 42.878958
RightHand -13.866739 -0.000000 -21.870405
RightHandThumb1 -24.326973 -0.000000 -32.862282
LeftUpLeg -117.296055 2.142505 2.851511
LeftLeg -1.345280 -0.000000 0.000000
LeftFoot 9.411269 -4.537374 -27.142227
LeftToeBase 8.073550 -0.000000 -0.000000
RightUpLeg -110.153063 -20.172161 35.363284
RightLeg -0.178531 -0.000000 0.000000
RightFoot 1.669764 -19.492788 17.267036
RightToeBase 5.499422 -0.000000 -0.000000
957
root 1.073774 31.585020 -12.938615 109.087972 28.907778 8.935674
Spine 42.530137 -1.154022 -4.299311
Head 20.811224 -18.940228 -33.747558
LeftShoulder 11.300444 -50.787431 35.517600
LeftArm 34.453282 -16.139424 -39.819418
LeftForeArm 14.345018 -0.000000 36.190132
LeftHand -40.516791 -0.000000 75.860485
LeftHandThumb1 -26.253704 0.000000 33.147579
RightShoulder -10.741491 62.682691 -64.266971
RightArm 47.935956 0.274159 38.887386
RightForeArm -53.822738 -0.000000 42.865102
RightHand -13.874896 -0.000000 -21.850005
RightHandThumb1 -24.326973 -0.000000 -32.862282
LeftUpLeg -117.323014 2.128101 2.861470
LeftLeg -1.304741 -0.000000 0.000000
LeftFoot 9.401593 -4.507196 -27.170661
LeftToeBase 8.123207 -0.000000 -0.000000
RightUpLeg -110.162729 -20.192493 35.347189
RightLeg -0.174191 -0.000000 0.000000
RightFoot 1.670840 -19.528411 17.282311
RightToeBase 5.524860 -0.000000 -0.000000
